<svg data-v-fde0c5aa="" xmlns="http://www.w3.org/2000/svg" viewBox="0 0 300 300" class="iconLeftSlogan"><!----><defs data-v-fde0c5aa=""><!----></defs><rect data-v-fde0c5aa="" fill="transparent" x="0" y="0" width="300px" height="300px" class="logo-background-square"></rect><defs data-v-fde0c5aa=""><!----></defs><g data-v-fde0c5aa="" id="89dfe018-6e6c-4d2f-87a8-383bfb7c16be" fill="#000000" transform="matrix(3.0320833430419407,0,0,3.0320833430419407,123.52593662019031,115.31833668186874)"><path d="M4.52 12.54L4.52 12.54L4.52 12.54Q3.64 13.01 2.89 13.02L2.89 13.02L2.89 13.02Q2.14 13.03 1.60 12.74L1.60 12.74L1.60 12.74Q1.06 12.45 0.76 11.91L0.76 11.91L0.76 11.91Q0.45 11.38 0.41 10.75L0.41 10.75L0.41 10.75Q0.38 10.11 0.67 9.44L0.67 9.44L0.67 9.44Q0.95 8.76 1.60 8.19L1.60 8.19L1.60 8.19Q2.66 7.25 4.10 7.21L4.10 7.21L4.10 7.21Q4.38 7.20 4.66 7.23L4.66 7.23L4.66 7.23Q4.93 7.27 5.18 7.39L5.18 7.39L5.18 7.39Q5.26 7.52 5.28 7.63L5.28 7.63L5.28 7.63Q5.29 7.74 5.28 7.85L5.28 7.85L5.28 7.85Q5.26 7.97 5.22 8.09L5.22 8.09L5.22 8.09Q5.18 8.22 5.17 8.36L5.17 8.36L5.17 8.36Q5.12 8.53 5.03 8.56L5.03 8.56L5.03 8.56Q4.93 8.60 4.80 8.57L4.80 8.57L4.80 8.57Q4.68 8.55 4.54 8.51L4.54 8.51L4.54 8.51Q4.41 8.47 4.30 8.50L4.30 8.50L4.30 8.50Q4.19 8.46 3.96 8.48L3.96 8.48L3.96 8.48Q3.74 8.51 3.63 8.46L3.63 8.46L3.63 8.46Q3.09 8.53 2.69 8.80L2.69 8.80L2.69 8.80Q2.28 9.07 2.03 9.44L2.03 9.44L2.03 9.44Q1.78 9.81 1.69 10.23L1.69 10.23L1.69 10.23Q1.61 10.65 1.72 11.00L1.72 11.00L1.72 11.00Q1.83 11.35 2.16 11.59L2.16 11.59L2.16 11.59Q2.49 11.82 3.05 11.82L3.05 11.82L3.05 11.82Q3.71 11.82 4.27 11.47L4.27 11.47L4.27 11.47Q4.83 11.13 5.29 10.71L5.29 10.71L5.29 10.71Q5.49 10.79 5.61 10.94L5.61 10.94L5.61 10.94Q5.73 11.09 5.75 11.45L5.75 11.45L5.75 11.45Q5.71 11.61 5.57 11.77L5.57 11.77L5.57 11.77Q5.42 11.94 5.24 12.09L5.24 12.09L5.24 12.09Q5.05 12.24 4.86 12.36L4.86 12.36L4.86 12.36Q4.66 12.47 4.52 12.54ZM11.17 10.05L11.17 10.05L11.17 10.05Q11.41 10.22 11.46 10.38L11.46 10.38L11.46 10.38Q11.51 10.54 11.56 10.81L11.56 10.81L11.56 10.81Q11.65 11.23 11.53 11.56L11.53 11.56L11.53 11.56Q11.41 11.89 11.14 12.12L11.14 12.12L11.14 12.12Q10.88 12.36 10.51 12.53L10.51 12.53L10.51 12.53Q10.15 12.70 9.76 12.79L9.76 12.79L9.76 12.79Q9.37 12.88 8.97 12.92L8.97 12.92L8.97 12.92Q8.58 12.96 8.27 12.95L8.27 12.95L8.27 12.95Q7.78 12.92 7.35 12.76L7.35 12.76L7.35 12.76Q6.92 12.60 6.50 12.36L6.50 12.36L6.50 12.36Q6.54 12.24 6.57 12.07L6.57 12.07L6.57 12.07Q6.59 11.90 6.64 11.72L6.64 11.72L6.64 11.72Q6.68 11.55 6.75 11.40L6.75 11.40L6.75 11.40Q6.82 11.24 6.93 11.13L6.93 11.13L7.14 11.30L7.14 11.30Q7.24 11.40 7.39 11.51L7.39 11.51L7.39 11.51Q7.55 11.62 7.72 11.71L7.72 11.71L7.72 11.71Q7.90 11.80 8.07 11.86L8.07 11.86L8.07 11.86Q8.25 11.91 8.39 11.91L8.39 11.91L8.39 11.91Q9.27 11.94 9.78 11.71L9.78 11.71L9.78 11.71Q10.29 11.48 10.28 11.10L10.28 11.10L10.28 11.10Q10.28 10.93 10.11 10.82L10.11 10.82L10.11 10.82Q9.94 10.71 9.83 10.65L9.83 10.65L9.83 10.65Q9.45 10.49 8.95 10.40L8.95 10.40L8.95 10.40Q8.46 10.32 8.02 10.16L8.02 10.16L8.02 10.16Q7.59 10.01 7.29 9.70L7.29 9.70L7.29 9.70Q6.99 9.39 6.99 8.76L6.99 8.76L6.99 8.76Q6.99 8.36 7.20 8.03L7.20 8.03L7.20 8.03Q7.41 7.70 7.75 7.45L7.75 7.45L7.75 7.45Q8.09 7.20 8.53 7.03L8.53 7.03L8.53 7.03Q8.96 6.86 9.41 6.77L9.41 6.77L9.41 6.77Q9.86 6.68 10.28 6.69L10.28 6.69L10.28 6.69Q10.70 6.69 11.02 6.79L11.02 6.79L11.02 6.79Q11.09 6.82 11.21 6.86L11.21 6.86L11.21 6.86Q11.34 6.90 11.41 6.94L11.41 6.94L11.41 6.94Q11.47 7.10 11.40 7.20L11.40 7.20L11.40 7.20Q11.33 7.31 11.30 7.46L11.30 7.46L11.30 7.46Q11.27 7.49 11.26 7.56L11.26 7.56L11.26 7.56Q11.24 7.63 11.23 7.71L11.23 7.71L11.23 7.71Q11.21 7.78 11.21 7.85L11.21 7.85L11.21 7.85Q11.20 7.92 11.17 7.92L11.17 7.92L11.17 7.92Q11.03 7.94 10.88 7.91L10.88 7.91L10.88 7.91Q10.74 7.88 10.58 7.87L10.58 7.87L10.58 7.87Q10.28 7.84 9.93 7.85L9.93 7.85L9.93 7.85Q9.58 7.85 9.25 7.94L9.25 7.94L9.25 7.94Q8.92 8.02 8.64 8.20L8.64 8.20L8.64 8.20Q8.36 8.39 8.20 8.71L8.20 8.71L8.19 8.74L8.19 8.74Q8.20 8.88 8.29 9.00L8.29 9.00L8.29 9.00Q8.39 9.11 8.52 9.20L8.52 9.20L8.52 9.20Q8.65 9.28 8.79 9.34L8.79 9.34L8.79 9.34Q8.93 9.39 9.06 9.41L9.06 9.41L9.06 9.41Q9.38 9.45 9.70 9.51L9.70 9.51L9.70 9.51Q10.02 9.58 10.31 9.67L10.31 9.67L10.31 9.67Q10.60 9.76 10.82 9.86L10.82 9.86L10.82 9.86Q11.05 9.95 11.17 10.05ZM16.81 10.05L16.81 10.05L16.81 10.05Q17.05 10.22 17.10 10.38L17.10 10.38L17.10 10.38Q17.15 10.54 17.21 10.81L17.21 10.81L17.21 10.81Q17.29 11.23 17.17 11.56L17.17 11.56L17.17 11.56Q17.05 11.89 16.79 12.12L16.79 12.12L16.79 12.12Q16.52 12.36 16.16 12.53L16.16 12.53L16.16 12.53Q15.79 12.70 15.40 12.79L15.40 12.79L15.40 12.79Q15.01 12.88 14.62 12.92L14.62 12.92L14.62 12.92Q14.22 12.96 13.92 12.95L13.92 12.95L13.92 12.95Q13.43 12.92 12.99 12.76L12.99 12.76L12.99 12.76Q12.56 12.60 12.14 12.36L12.14 12.36L12.14 12.36Q12.18 12.24 12.21 12.07L12.21 12.07L12.21 12.07Q12.24 11.90 12.28 11.72L12.28 11.72L12.28 11.72Q12.32 11.55 12.39 11.40L12.39 11.40L12.39 11.40Q12.46 11.24 12.57 11.13L12.57 11.13L12.78 11.30L12.78 11.30Q12.88 11.40 13.03 11.51L13.03 11.51L13.03 11.51Q13.19 11.62 13.36 11.71L13.36 11.71L13.36 11.71Q13.54 11.80 13.71 11.86L13.71 11.86L13.71 11.86Q13.89 11.91 14.03 11.91L14.03 11.91L14.03 11.91Q14.91 11.94 15.42 11.71L15.42 11.71L15.42 11.71Q15.93 11.48 15.92 11.10L15.92 11.10L15.92 11.10Q15.92 10.93 15.75 10.82L15.75 10.82L15.75 10.82Q15.58 10.71 15.47 10.65L15.47 10.65L15.47 10.65Q15.09 10.49 14.59 10.40L14.59 10.40L14.59 10.40Q14.10 10.32 13.66 10.16L13.66 10.16L13.66 10.16Q13.23 10.01 12.93 9.70L12.93 9.70L12.93 9.70Q12.63 9.39 12.63 8.76L12.63 8.76L12.63 8.76Q12.63 8.36 12.84 8.03L12.84 8.03L12.84 8.03Q13.05 7.70 13.39 7.45L13.39 7.45L13.39 7.45Q13.73 7.20 14.17 7.03L14.17 7.03L14.17 7.03Q14.60 6.86 15.05 6.77L15.05 6.77L15.05 6.77Q15.50 6.68 15.92 6.69L15.92 6.69L15.92 6.69Q16.34 6.69 16.66 6.79L16.66 6.79L16.66 6.79Q16.73 6.82 16.86 6.86L16.86 6.86L16.86 6.86Q16.98 6.90 17.05 6.94L17.05 6.94L17.05 6.94Q17.11 7.10 17.04 7.20L17.04 7.20L17.04 7.20Q16.97 7.31 16.94 7.46L16.94 7.46L16.94 7.46Q16.91 7.49 16.90 7.56L16.90 7.56L16.90 7.56Q16.88 7.63 16.87 7.71L16.87 7.71L16.87 7.71Q16.86 7.78 16.85 7.85L16.85 7.85L16.85 7.85Q16.84 7.92 16.81 7.92L16.81 7.92L16.81 7.92Q16.67 7.94 16.53 7.91L16.53 7.91L16.53 7.91Q16.38 7.88 16.23 7.87L16.23 7.87L16.23 7.87Q15.92 7.84 15.57 7.85L15.57 7.85L15.57 7.85Q15.22 7.85 14.89 7.94L14.89 7.94L14.89 7.94Q14.56 8.02 14.28 8.20L14.28 8.20L14.28 8.20Q14 8.39 13.85 8.71L13.85 8.71L13.83 8.74L13.83 8.74Q13.85 8.88 13.94 9.00L13.94 9.00L13.94 9.00Q14.03 9.11 14.16 9.20L14.16 9.20L14.16 9.20Q14.29 9.28 14.43 9.34L14.43 9.34L14.43 9.34Q14.57 9.39 14.70 9.41L14.70 9.41L14.70 9.41Q15.02 9.45 15.34 9.51L15.34 9.51L15.34 9.51Q15.67 9.58 15.95 9.67L15.95 9.67L15.95 9.67Q16.24 9.76 16.46 9.86L16.46 9.86L16.46 9.86Q16.69 9.95 16.81 10.05ZM25.96 12.54L25.96 12.54L25.96 12.54Q25.07 13.01 24.32 13.02L24.32 13.02L24.32 13.02Q23.58 13.03 23.04 12.74L23.04 12.74L23.04 12.74Q22.50 12.45 22.19 11.91L22.19 11.91L22.19 11.91Q21.88 11.38 21.85 10.75L21.85 10.75L21.85 10.75Q21.81 10.11 22.10 9.44L22.10 9.44L22.10 9.44Q22.39 8.76 23.03 8.19L23.03 8.19L23.03 8.19Q24.09 7.25 25.54 7.21L25.54 7.21L25.54 7.21Q25.82 7.20 26.09 7.23L26.09 7.23L26.09 7.23Q26.36 7.27 26.61 7.39L26.61 7.39L26.61 7.39Q26.70 7.52 26.71 7.63L26.71 7.63L26.71 7.63Q26.73 7.74 26.71 7.85L26.71 7.85L26.71 7.85Q26.70 7.97 26.66 8.09L26.66 8.09L26.66 8.09Q26.61 8.22 26.60 8.36L26.60 8.36L26.60 8.36Q26.56 8.53 26.46 8.56L26.46 8.56L26.46 8.56Q26.36 8.60 26.24 8.57L26.24 8.57L26.24 8.57Q26.11 8.55 25.98 8.51L25.98 8.51L25.98 8.51Q25.84 8.47 25.73 8.50L25.73 8.50L25.73 8.50Q25.62 8.46 25.40 8.48L25.40 8.48L25.40 8.48Q25.17 8.51 25.06 8.46L25.06 8.46L25.06 8.46Q24.53 8.53 24.12 8.80L24.12 8.80L24.12 8.80Q23.72 9.07 23.46 9.44L23.46 9.44L23.46 9.44Q23.21 9.81 23.13 10.23L23.13 10.23L23.13 10.23Q23.04 10.65 23.16 11.00L23.16 11.00L23.16 11.00Q23.27 11.35 23.60 11.59L23.60 11.59L23.60 11.59Q23.93 11.82 24.49 11.82L24.49 11.82L24.49 11.82Q25.14 11.82 25.70 11.47L25.70 11.47L25.70 11.47Q26.26 11.13 26.73 10.71L26.73 10.71L26.73 10.71Q26.92 10.79 27.04 10.94L27.04 10.94L27.04 10.94Q27.16 11.09 27.19 11.45L27.19 11.45L27.19 11.45Q27.15 11.61 27.00 11.77L27.00 11.77L27.00 11.77Q26.85 11.94 26.67 12.09L26.67 12.09L26.67 12.09Q26.49 12.24 26.29 12.36L26.29 12.36L26.29 12.36Q26.10 12.47 25.96 12.54ZM28.07 12.53L28.07 12.53L28.07 12.53Q28.04 12.32 28.03 12.04L28.03 12.04L28.03 12.04Q28.03 11.76 28.03 11.47L28.03 11.47L28.03 11.47Q28.04 11.17 28.05 10.89L28.05 10.89L28.05 10.89Q28.06 10.61 28.04 10.40L28.04 10.40L28.04 10.40Q28.03 9.98 28.02 9.72L28.02 9.72L28.02 9.72Q28.01 9.46 28.01 9.23L28.01 9.23L28.01 9.23Q28.01 9.00 28.02 8.74L28.02 8.74L28.02 8.74Q28.03 8.48 28.03 8.06L28.03 8.06L28.04 6.73L28.04 6.73Q28.06 5.94 28.09 5.13L28.09 5.13L28.09 5.13Q28.13 4.33 28.24 3.53L28.24 3.53L28.24 3.53Q28.42 3.47 28.62 3.36L28.62 3.36L28.62 3.36Q28.80 3.36 28.93 3.35L28.93 3.35L28.93 3.35Q29.06 3.35 29.20 3.49L29.20 3.49L29.20 3.49Q29.27 3.70 29.27 3.89L29.27 3.89L29.27 3.89Q29.27 5.04 29.25 6.17L29.25 6.17L29.25 6.17Q29.23 7.31 29.23 8.44L29.23 8.44L29.23 8.44Q29.23 9.41 29.25 10.36L29.25 10.36L29.25 10.36Q29.26 11.31 29.26 12.28L29.26 12.28L29.26 12.28Q29.26 12.50 29.20 12.61L29.20 12.61L29.20 12.61Q29.15 12.71 29.04 12.73L29.04 12.73L29.04 12.73Q28.94 12.75 28.80 12.73L28.80 12.73L28.80 12.73Q28.67 12.71 28.53 12.68L28.53 12.68L28.53 12.68Q28.41 12.66 28.28 12.65L28.28 12.65L28.28 12.65Q28.15 12.64 28.07 12.53ZM31.86 4.93L31.86 4.93L31.86 4.93Q32.13 5.07 32.22 5.31L32.22 5.31L32.22 5.31Q32.31 5.54 32.26 5.79L32.26 5.79L32.26 5.79Q32.20 6.03 32.02 6.22L32.02 6.22L32.02 6.22Q31.85 6.41 31.58 6.45L31.58 6.45L31.58 6.45Q31.21 6.51 30.97 6.32L30.97 6.32L30.97 6.32Q30.74 6.13 30.70 5.86L30.70 5.86L30.70 5.86Q30.65 5.59 30.78 5.30L30.78 5.30L30.78 5.30Q30.91 5.01 31.28 4.86L31.28 4.86L31.28 4.86Q31.47 4.77 31.61 4.82L31.61 4.82L31.61 4.82Q31.75 4.87 31.86 4.93ZM30.91 8.22L30.91 8.22L30.91 8.22Q30.91 8.09 30.93 7.88L30.93 7.88L30.93 7.88Q30.94 7.66 30.95 7.57L30.95 7.57L30.95 7.57Q31.04 7.57 31.25 7.55L31.25 7.55L31.25 7.55Q31.47 7.52 31.56 7.55L31.56 7.55L31.56 7.55Q31.70 7.56 31.84 7.60L31.84 7.60L31.84 7.60Q31.98 7.64 32.09 7.66L32.09 7.66L32.09 7.66Q32.12 7.78 32.13 8.16L32.13 8.16L32.13 8.16Q32.14 8.53 32.14 9.02L32.14 9.02L32.14 9.02Q32.14 9.51 32.14 10.06L32.14 10.06L32.14 10.06Q32.13 10.61 32.12 11.11L32.12 11.11L32.12 11.11Q32.10 11.61 32.09 11.98L32.09 11.98L32.09 11.98Q32.07 12.35 32.06 12.47L32.06 12.47L32.06 12.47Q32.05 12.60 31.87 12.65L31.87 12.65L31.87 12.65Q31.70 12.70 31.49 12.71L31.49 12.71L31.49 12.71Q31.28 12.71 31.08 12.69L31.08 12.69L31.08 12.69Q30.88 12.67 30.83 12.67L30.83 12.67L30.83 12.67Q30.83 12.54 30.83 12.20L30.83 12.20L30.83 12.20Q30.84 11.86 30.86 11.40L30.86 11.40L30.86 11.40Q30.87 10.93 30.88 10.42L30.88 10.42L30.88 10.42Q30.88 9.91 30.90 9.46L30.90 9.46L30.90 9.46Q30.91 9.00 30.91 8.67L30.91 8.67L30.91 8.67Q30.91 8.33 30.91 8.22ZM37.38 12.54L37.38 12.54L37.38 12.54Q36.50 13.01 35.75 13.02L35.75 13.02L35.75 13.02Q35 13.03 34.46 12.74L34.46 12.74L34.46 12.74Q33.92 12.45 33.61 11.91L33.61 11.91L33.61 11.91Q33.31 11.38 33.27 10.75L33.27 10.75L33.27 10.75Q33.24 10.11 33.52 9.44L33.52 9.44L33.52 9.44Q33.81 8.76 34.45 8.19L34.45 8.19L34.45 8.19Q35.52 7.25 36.96 7.21L36.96 7.21L36.96 7.21Q37.24 7.20 37.51 7.23L37.51 7.23L37.51 7.23Q37.79 7.27 38.04 7.39L38.04 7.39L38.04 7.39Q38.12 7.52 38.14 7.63L38.14 7.63L38.14 7.63Q38.15 7.74 38.14 7.85L38.14 7.85L38.14 7.85Q38.12 7.97 38.08 8.09L38.08 8.09L38.08 8.09Q38.04 8.22 38.02 8.36L38.02 8.36L38.02 8.36Q37.98 8.53 37.88 8.56L37.88 8.56L37.88 8.56Q37.79 8.60 37.66 8.57L37.66 8.57L37.66 8.57Q37.53 8.55 37.40 8.51L37.40 8.51L37.40 8.51Q37.27 8.47 37.16 8.50L37.16 8.50L37.16 8.50Q37.04 8.46 36.82 8.48L36.82 8.48L36.82 8.48Q36.60 8.51 36.48 8.46L36.48 8.46L36.48 8.46Q35.95 8.53 35.55 8.80L35.55 8.80L35.55 8.80Q35.14 9.07 34.89 9.44L34.89 9.44L34.89 9.44Q34.64 9.81 34.55 10.23L34.55 10.23L34.55 10.23Q34.47 10.65 34.58 11.00L34.58 11.00L34.58 11.00Q34.69 11.35 35.02 11.59L35.02 11.59L35.02 11.59Q35.35 11.82 35.91 11.82L35.91 11.82L35.91 11.82Q36.57 11.82 37.13 11.47L37.13 11.47L37.13 11.47Q37.69 11.13 38.15 10.71L38.15 10.71L38.15 10.71Q38.35 10.79 38.46 10.94L38.46 10.94L38.46 10.94Q38.58 11.09 38.61 11.45L38.61 11.45L38.61 11.45Q38.57 11.61 38.42 11.77L38.42 11.77L38.42 11.77Q38.28 11.94 38.09 12.09L38.09 12.09L38.09 12.09Q37.91 12.24 37.72 12.36L37.72 12.36L37.72 12.36Q37.52 12.47 37.38 12.54ZM42.45 9.11L42.45 9.11L42.45 9.11Q42.56 9.39 42.85 9.76L42.85 9.76L42.85 9.76Q43.13 10.12 43.48 10.51L43.48 10.51L43.48 10.51Q43.83 10.91 44.18 11.27L44.18 11.27L44.18 11.27Q44.52 11.63 44.74 11.90L44.74 11.90L44.74 11.90Q44.81 11.98 44.89 12.05L44.89 12.05L44.89 12.05Q44.97 12.12 45.01 12.21L45.01 12.21L45.01 12.21Q44.98 12.29 44.87 12.37L44.87 12.37L44.87 12.37Q44.76 12.45 44.69 12.49L44.69 12.49L44.69 12.49Q44.62 12.54 44.50 12.61L44.50 12.61L44.50 12.61Q44.38 12.67 44.28 12.67L44.28 12.67L44.28 12.67Q43.90 12.67 43.53 12.33L43.53 12.33L43.53 12.33Q43.16 11.98 42.80 11.54L42.80 11.54L42.80 11.54Q42.45 11.10 42.09 10.68L42.09 10.68L42.09 10.68Q41.73 10.25 41.36 10.09L41.36 10.09L41.36 10.09Q41.12 10.18 40.93 10.34L40.93 10.34L40.93 10.34Q40.74 10.50 40.67 10.67L40.67 10.67L40.71 12.19L40.71 12.19Q40.71 12.42 40.66 12.52L40.66 12.52L40.66 12.52Q40.61 12.61 40.52 12.64L40.52 12.64L40.52 12.64Q40.42 12.67 40.28 12.65L40.28 12.65L40.28 12.65Q40.14 12.63 39.98 12.60L39.98 12.60L39.98 12.60Q39.86 12.57 39.73 12.56L39.73 12.56L39.73 12.56Q39.61 12.54 39.52 12.43L39.52 12.43L39.52 12.43Q39.44 11.90 39.49 11.37L39.49 11.37L39.49 11.37Q39.54 10.84 39.51 10.30L39.51 10.30L39.51 10.30Q39.47 9.38 39.47 8.48L39.47 8.48L39.47 8.48Q39.48 7.57 39.51 6.65L39.51 6.65L39.51 6.65Q39.52 5.84 39.55 5.03L39.55 5.03L39.55 5.03Q39.58 4.23 39.69 3.43L39.69 3.43L39.69 3.43Q39.90 3.37 40.07 3.26L40.07 3.26L40.07 3.26Q40.24 3.26 40.38 3.26L40.38 3.26L40.38 3.26Q40.53 3.26 40.67 3.39L40.67 3.39L40.67 3.39Q40.71 3.51 40.73 3.91L40.73 3.91L40.73 3.91Q40.74 4.31 40.74 4.86L40.74 4.86L40.74 4.86Q40.74 5.40 40.73 6.03L40.73 6.03L40.73 6.03Q40.73 6.66 40.71 7.25L40.71 7.25L40.71 7.25Q40.70 7.83 40.69 8.29L40.69 8.29L40.69 8.29Q40.68 8.76 40.68 9.00L40.68 9.00L40.68 9.00Q40.80 8.97 41.03 8.79L41.03 8.79L41.03 8.79Q41.27 8.60 41.57 8.34L41.57 8.34L41.57 8.34Q41.87 8.08 42.21 7.79L42.21 7.79L42.21 7.79Q42.55 7.50 42.85 7.25L42.85 7.25L42.85 7.25Q43.16 7 43.41 6.83L43.41 6.83L43.41 6.83Q43.65 6.66 43.79 6.66L43.79 6.66L43.79 6.66Q43.83 6.66 43.91 6.72L43.91 6.72L43.91 6.72Q43.99 6.78 44.08 6.86L44.08 6.86L44.08 6.86Q44.17 6.94 44.25 7.06L44.25 7.06L44.25 7.06Q44.32 7.17 44.35 7.29L44.35 7.29L44.35 7.29Q44.32 7.36 44.07 7.62L44.07 7.62L44.07 7.62Q43.82 7.87 43.49 8.17L43.49 8.17L43.49 8.17Q43.16 8.47 42.86 8.74L42.86 8.74L42.86 8.74Q42.56 9.02 42.45 9.11Z"></path></g><defs data-v-fde0c5aa=""><linearGradient data-v-fde0c5aa="" gradientTransform="rotate(25)" id="45f0aed9-b195-4191-88fd-2e25db046e81" x1="0%" y1="0%" x2="100%" y2="0%"><stop data-v-fde0c5aa="" offset="0%" stop-color="#41E296" stop-opacity="1"></stop><stop data-v-fde0c5aa="" offset="100%" stop-color="#00C4EE" stop-opacity="1"></stop></linearGradient></defs><g data-v-fde0c5aa="" id="75320304-9459-480c-ac30-4e6dd960ce8a" stroke="none" fill="url(#45f0aed9-b195-4191-88fd-2e25db046e81)" transform="matrix(0.11216232316371065,0,0,0.11216232316371065,40.00011557711618,117.5718658562253)"><path d="M73.647 107.372h437.302l-13.646 69.259H59.737L38.513 284.237h437.316c-8.041 40.251-15.933 79.916-24.01 119.543-.3 1.47-2.174 3.246-3.691 3.752a47248.394 47248.394 0 0 1-169.701 56.222c-1.868.615-4.352.615-6.177-.077-48.869-18.547-97.681-37.242-146.539-55.819-2.575-.979-3.225-2.167-2.641-4.799 1.55-6.987 2.855-14.029 4.231-21.054 1.838-9.384 3.652-18.772 5.468-28.116-.902-.24-1.221-.398-1.539-.398-34.163-.03-68.327-.007-102.49-.132-3.336-.012-3.622 1.804-4.107 4.279-4.162 21.238-8.443 42.453-12.652 63.683C7.976 441.536 4.013 461.76 0 482.139c1.46.655 2.63 1.249 3.848 1.715 81.773 31.304 163.543 62.615 245.364 93.794 2.088.796 4.943.756 7.09.046 94.503-31.262 188.961-62.662 283.463-93.929 2.948-.975 4.32-2.372 4.904-5.326 9.295-47.034 18.653-94.055 28.019-141.075 20.554-103.187 41.123-206.371 61.677-309.557 1.834-9.208 3.598-18.43 5.426-27.806L95.125 0 73.647 107.372z"></path><path d="M73.647 107.372L95.125 0H639.79c-1.828 9.376-3.591 18.598-5.426 27.806-20.553 103.187-41.123 206.371-61.677 309.557-9.366 47.02-18.724 94.041-28.019 141.075-.584 2.954-1.956 4.351-4.904 5.326-94.502 31.267-188.96 62.667-283.463 93.929-2.147.71-5.002.75-7.09-.046-81.821-31.179-163.591-62.49-245.364-93.794-1.218-.466-2.387-1.06-3.848-1.715 4.013-20.379 7.976-40.603 11.983-60.818 4.208-21.229 8.49-42.444 12.652-63.683.485-2.475.771-4.291 4.107-4.279 34.163.125 68.327.102 102.49.132.318 0 .637.159 1.539.398-1.816 9.344-3.629 18.732-5.468 28.116-1.376 7.025-2.681 14.067-4.231 21.054-.584 2.632.066 3.82 2.641 4.799 48.857 18.578 97.67 37.273 146.539 55.819 1.825.693 4.309.692 6.177.077a47182.583 47182.583 0 0 0 169.701-56.222c1.517-.506 3.391-2.281 3.691-3.752 8.076-39.627 15.968-79.292 24.01-119.543H38.514L59.738 176.63h437.566l13.646-69.259-437.303.001z"></path></g><defs data-v-fde0c5aa=""><!----></defs><g data-v-fde0c5aa="" id="da3ec210-de20-46fc-b3a1-09fa1ab44846" fill="#000000" transform="matrix(0.5545781867890542,0,0,0.5545781867890542,124.56091487595617,161.63043018100976)"><path d="M6.51 14.40L0.36 14.40L0.39 14.11L1.54 13.90L1.54 6.34L0.37 6.17L0.40 5.90L3.51 5.90L3.48 6.17L2.28 6.32L2.28 14.03L5.90 14.03L6.43 12.09L6.73 12.14L6.51 14.40ZM15.67 6.36L14.44 6.18L14.49 5.89L20.69 5.89L20.47 8.07L20.16 8.03L20.03 6.24L16.38 6.24L16.38 9.89L18.67 9.89L18.92 8.94L19.29 8.89L19.07 11.55L18.72 11.61L18.61 10.26L16.38 10.26L16.38 14.03L20.22 14.03L20.73 12.19L21.01 12.26L20.80 14.40L14.46 14.40L14.51 14.11L15.67 13.90L15.67 6.36ZM32.78 6.98L31.41 10.75L34.10 10.75L32.78 6.98ZM31.46 14.40L28.73 14.40L28.77 14.11L29.74 13.90L32.73 5.82L33.09 5.73L35.93 13.95L36.83 14.08L36.78 14.39L33.98 14.39L34.04 14.10L35.18 13.90L34.23 11.13L31.27 11.13L30.26 13.95L31.52 14.08L31.46 14.40ZM46.34 6.18L46.34 10.11L47.89 10.11L47.89 10.11Q48.58 9.86 49.03 9.28L49.03 9.28L49.03 9.28Q49.49 8.70 49.49 8.02L49.49 8.02L49.49 8.02Q49.49 7.11 48.87 6.63L48.87 6.63L48.87 6.63Q48.25 6.15 47.17 6.15L47.17 6.15L46.34 6.18ZM47.71 14.40L44.52 14.40L44.57 14.11L45.64 13.90L45.64 6.51L44.54 6.37L44.60 6.13L44.60 6.13Q46.43 5.83 47.51 5.83L47.51 5.83L47.51 5.83Q48.28 5.83 48.88 6.05L48.88 6.05L48.88 6.05Q49.49 6.27 49.87 6.73L49.87 6.73L49.87 6.73Q50.24 7.19 50.24 7.83L50.24 7.83L50.24 7.83Q50.24 8.57 49.82 9.14L49.82 9.14L49.82 9.14Q49.39 9.72 48.36 10.23L48.36 10.23L48.36 10.23L49.68 12.19L49.68 12.19Q50.39 13.23 50.73 13.58L50.73 13.58L50.73 13.58Q51.08 13.92 51.46 14.05L51.46 14.05L51.79 14.16L51.75 14.42L51.75 14.42Q51.45 14.52 51.11 14.52L51.11 14.52L51.11 14.52Q50.83 14.52 50.57 14.40L50.57 14.40L50.57 14.40Q50.32 14.28 50.08 14.01L50.08 14.01L50.08 14.01Q49.83 13.75 49.65 13.48L49.65 13.48L49.65 13.48Q49.46 13.22 49.19 12.77L49.19 12.77L47.80 10.49L46.34 10.49L46.34 13.95L47.78 14.08L47.71 14.40ZM60.72 6.36L59.46 6.14L59.51 5.89L61.58 5.89L66.31 13.17L66.31 6.33L65.06 6.16L65.10 5.89L68.00 5.89L67.94 6.16L66.81 6.32L66.81 14.44L66.44 14.52L61.23 6.65L61.23 13.95L62.49 14.08L62.42 14.40L59.54 14.40L59.58 14.11L60.72 13.90L60.72 6.36ZM85.62 10.25L85.62 10.25L85.62 10.25Q85.62 9.73 85.73 9.21L85.73 9.21L85.73 9.21Q85.83 8.68 86.03 8.17L86.03 8.17L86.03 8.17Q86.24 7.66 86.56 7.22L86.56 7.22L86.56 7.22Q86.89 6.77 87.31 6.44L87.31 6.44L87.31 6.44Q87.72 6.10 88.28 5.90L88.28 5.90L88.28 5.90Q88.83 5.71 89.47 5.71L89.47 5.71L89.47 5.71Q90.88 5.71 91.79 6.39L91.79 6.39L91.58 8.70L91.26 8.64L91.05 6.87L91.05 6.87Q90.46 6.09 89.15 6.09L89.15 6.09L89.15 6.09Q88.00 6.09 87.17 7.19L87.17 7.19L87.17 7.19Q86.34 8.30 86.34 10.00L86.34 10.00L86.34 10.00Q86.34 11.92 87.15 12.97L87.15 12.97L87.15 12.97Q87.95 14.03 89.43 14.03L89.43 14.03L89.43 14.03Q90.16 14.03 90.85 13.65L90.85 13.65L90.85 13.65Q91.54 13.28 92.01 12.74L92.01 12.74L92.17 12.99L92.17 12.99Q92.00 13.25 91.71 13.51L91.71 13.51L91.71 13.51Q91.42 13.77 91.04 14.02L91.04 14.02L91.04 14.02Q90.65 14.27 90.15 14.42L90.15 14.42L90.15 14.42Q89.64 14.57 89.11 14.57L89.11 14.57L89.11 14.57Q87.54 14.57 86.58 13.40L86.58 13.40L86.58 13.40Q85.62 12.22 85.62 10.25ZM99.85 13.60L99.85 13.60L100.06 11.66L100.39 11.71L100.58 13.21L100.58 13.21Q100.80 13.64 101.33 13.89L101.33 13.89L101.33 13.89Q101.86 14.14 102.46 14.14L102.46 14.14L102.46 14.14Q103.15 14.14 103.63 13.74L103.63 13.74L103.63 13.74Q104.10 13.33 104.10 12.61L104.10 12.61L104.10 12.61Q104.10 12.20 103.89 11.83L103.89 11.83L103.89 11.83Q103.67 11.46 103.33 11.18L103.33 11.18L103.33 11.18Q102.98 10.90 102.56 10.63L102.56 10.63L102.56 10.63Q102.14 10.36 101.73 10.07L101.73 10.07L101.73 10.07Q101.31 9.79 100.96 9.48L100.96 9.48L100.96 9.48Q100.62 9.17 100.40 8.75L100.40 8.75L100.40 8.75Q100.19 8.33 100.19 7.84L100.19 7.84L100.19 7.84Q100.19 6.88 100.88 6.29L100.88 6.29L100.88 6.29Q101.58 5.71 102.46 5.71L102.46 5.71L102.46 5.71Q103.04 5.71 103.58 5.90L103.58 5.90L103.58 5.90Q104.13 6.09 104.45 6.46L104.45 6.46L104.23 8.58L103.91 8.53L103.73 6.87L103.73 6.87Q103.54 6.54 103.13 6.32L103.13 6.32L103.13 6.32Q102.71 6.10 102.28 6.10L102.28 6.10L102.28 6.10Q101.68 6.10 101.27 6.48L101.27 6.48L101.27 6.48Q100.86 6.87 100.86 7.52L100.86 7.52L100.86 7.52Q100.86 7.96 101.08 8.35L101.08 8.35L101.08 8.35Q101.30 8.74 101.65 9.03L101.65 9.03L101.65 9.03Q102.01 9.32 102.43 9.61L102.43 9.61L102.43 9.61Q102.85 9.89 103.28 10.17L103.28 10.17L103.28 10.17Q103.71 10.45 104.06 10.75L104.06 10.75L104.06 10.75Q104.41 11.05 104.63 11.45L104.63 11.45L104.63 11.45Q104.86 11.85 104.86 12.29L104.86 12.29L104.86 12.29Q104.86 13.28 104.10 13.93L104.10 13.93L104.10 13.93Q103.35 14.57 102.11 14.57L102.11 14.57L102.11 14.57Q101.40 14.57 100.80 14.30L100.80 14.30L100.80 14.30Q100.19 14.03 99.85 13.60ZM112.58 13.60L112.58 13.60L112.79 11.66L113.11 11.71L113.31 13.21L113.31 13.21Q113.53 13.64 114.06 13.89L114.06 13.89L114.06 13.89Q114.59 14.14 115.19 14.14L115.19 14.14L115.19 14.14Q115.88 14.14 116.35 13.74L116.35 13.74L116.35 13.74Q116.83 13.33 116.83 12.61L116.83 12.61L116.83 12.61Q116.83 12.20 116.62 11.83L116.62 11.83L116.62 11.83Q116.40 11.46 116.06 11.18L116.06 11.18L116.06 11.18Q115.71 10.90 115.29 10.63L115.29 10.63L115.29 10.63Q114.87 10.36 114.45 10.07L114.45 10.07L114.45 10.07Q114.04 9.79 113.69 9.48L113.69 9.48L113.69 9.48Q113.35 9.17 113.13 8.75L113.13 8.75L113.13 8.75Q112.92 8.33 112.92 7.84L112.92 7.84L112.92 7.84Q112.92 6.88 113.61 6.29L113.61 6.29L113.61 6.29Q114.30 5.71 115.19 5.71L115.19 5.71L115.19 5.71Q115.77 5.71 116.31 5.90L116.31 5.90L116.31 5.90Q116.85 6.09 117.18 6.46L117.18 6.46L116.96 8.58L116.64 8.53L116.46 6.87L116.46 6.87Q116.27 6.54 115.86 6.32L115.86 6.32L115.86 6.32Q115.44 6.10 115.01 6.10L115.01 6.10L115.01 6.10Q114.41 6.10 114.00 6.48L114.00 6.48L114.00 6.48Q113.59 6.87 113.59 7.52L113.59 7.52L113.59 7.52Q113.59 7.96 113.81 8.35L113.81 8.35L113.81 8.35Q114.03 8.74 114.38 9.03L114.38 9.03L114.38 9.03Q114.73 9.32 115.16 9.61L115.16 9.61L115.16 9.61Q115.58 9.89 116.01 10.17L116.01 10.17L116.01 10.17Q116.44 10.45 116.79 10.75L116.79 10.75L116.79 10.75Q117.14 11.05 117.36 11.45L117.36 11.45L117.36 11.45Q117.58 11.85 117.58 12.29L117.58 12.29L117.58 12.29Q117.58 13.28 116.83 13.93L116.83 13.93L116.83 13.93Q116.08 14.57 114.84 14.57L114.84 14.57L114.84 14.57Q114.13 14.57 113.52 14.30L113.52 14.30L113.52 14.30Q112.92 14.03 112.58 13.60ZM137.11 6.15L137.11 9.75L139.23 9.75L139.23 9.75Q139.69 9.45 140.02 9.01L140.02 9.01L140.02 9.01Q140.36 8.57 140.36 8.02L140.36 8.02L140.36 8.02Q140.36 7.08 139.72 6.59L139.72 6.59L139.72 6.59Q139.08 6.11 137.94 6.11L137.94 6.11L137.94 6.11Q137.29 6.11 137.11 6.15L137.11 6.15ZM137.11 10.08L137.11 14.03L138.79 14.03L138.79 14.03Q139.43 14.03 139.88 13.85L139.88 13.85L139.88 13.85Q140.34 13.68 140.58 13.38L140.58 13.38L140.58 13.38Q140.83 13.08 140.94 12.74L140.94 12.74L140.94 12.74Q141.05 12.41 141.05 12.02L141.05 12.02L141.05 12.02Q141.05 11.68 140.94 11.36L140.94 11.36L140.94 11.36Q140.83 11.04 140.59 10.74L140.59 10.74L140.59 10.74Q140.35 10.45 139.90 10.26L139.90 10.26L139.90 10.26Q139.46 10.08 138.86 10.08L138.86 10.08L137.11 10.08ZM138.11 14.40L135.21 14.40L135.26 14.11L136.42 13.90L136.42 6.51L135.24 6.36L135.31 6.12L135.31 6.12Q135.43 6.10 135.87 6.03L135.87 6.03L135.87 6.03Q136.31 5.96 136.48 5.94L136.48 5.94L136.48 5.94Q136.66 5.91 137.01 5.87L137.01 5.87L137.01 5.87Q137.37 5.83 137.68 5.82L137.68 5.82L137.68 5.82Q137.99 5.80 138.34 5.80L138.34 5.80L138.34 5.80Q139.62 5.80 140.34 6.38L140.34 6.38L140.34 6.38Q141.05 6.96 141.05 7.79L141.05 7.79L141.05 7.79Q141.05 8.98 139.64 9.76L139.64 9.76L139.64 9.80L139.64 9.80Q140.63 9.86 141.20 10.46L141.20 10.46L141.20 10.46Q141.77 11.05 141.77 11.80L141.77 11.80L141.77 11.80Q141.77 12.22 141.67 12.58L141.67 12.58L141.67 12.58Q141.57 12.95 141.30 13.29L141.30 13.29L141.30 13.29Q141.04 13.63 140.64 13.87L140.64 13.87L140.64 13.87Q140.23 14.11 139.59 14.25L139.59 14.25L139.59 14.25Q138.94 14.40 138.11 14.40L138.11 14.40ZM150.42 6.35L149.47 6.15L149.50 5.90L152.35 5.90L152.32 6.15L151.18 6.32L153.32 10.49L155.44 6.34L154.18 6.14L154.19 5.89L156.86 5.89L156.84 6.14L155.96 6.32L153.57 11.05L153.57 13.94L154.81 14.08L154.75 14.40L151.61 14.40L151.65 14.11L152.84 13.90L152.84 11.05L150.42 6.35ZM174.50 10.25L174.50 10.25L174.50 10.25Q174.50 9.73 174.61 9.21L174.61 9.21L174.61 9.21Q174.71 8.68 174.91 8.17L174.91 8.17L174.91 8.17Q175.12 7.66 175.44 7.22L175.44 7.22L175.44 7.22Q175.77 6.77 176.19 6.44L176.19 6.44L176.19 6.44Q176.60 6.10 177.16 5.90L177.16 5.90L177.16 5.90Q177.71 5.71 178.35 5.71L178.35 5.71L178.35 5.71Q179.76 5.71 180.67 6.39L180.67 6.39L180.46 8.70L180.14 8.64L179.94 6.87L179.94 6.87Q179.34 6.09 178.03 6.09L178.03 6.09L178.03 6.09Q176.88 6.09 176.05 7.19L176.05 7.19L176.05 7.19Q175.23 8.30 175.23 10.00L175.23 10.00L175.23 10.00Q175.23 11.92 176.03 12.97L176.03 12.97L176.03 12.97Q176.83 14.03 178.31 14.03L178.31 14.03L178.31 14.03Q179.04 14.03 179.73 13.65L179.73 13.65L179.73 13.65Q180.42 13.28 180.89 12.74L180.89 12.74L181.05 12.99L181.05 12.99Q180.88 13.25 180.59 13.51L180.59 13.51L180.59 13.51Q180.30 13.77 179.92 14.02L179.92 14.02L179.92 14.02Q179.53 14.27 179.03 14.42L179.03 14.42L179.03 14.42Q178.52 14.57 177.99 14.57L177.99 14.57L177.99 14.57Q176.42 14.57 175.46 13.40L175.46 13.40L175.46 13.40Q174.50 12.22 174.50 10.25ZM194.89 14.40L188.74 14.40L188.77 14.11L189.93 13.90L189.93 6.34L188.75 6.17L188.78 5.90L191.89 5.90L191.86 6.17L190.66 6.32L190.66 14.03L194.28 14.03L194.81 12.09L195.11 12.14L194.89 14.40ZM203.99 6.33L202.81 6.16L202.85 5.89L205.97 5.89L205.93 6.16L204.73 6.32L204.73 13.95L206.05 14.08L205.99 14.40L202.88 14.40L202.91 14.11L203.99 13.90L203.99 6.33ZM213.79 10.25L213.79 10.25L213.79 10.25Q213.79 9.73 213.89 9.21L213.89 9.21L213.89 9.21Q214.00 8.68 214.20 8.17L214.20 8.17L214.20 8.17Q214.40 7.66 214.73 7.22L214.73 7.22L214.73 7.22Q215.06 6.77 215.47 6.44L215.47 6.44L215.47 6.44Q215.89 6.10 216.44 5.90L216.44 5.90L216.44 5.90Q217 5.71 217.64 5.71L217.64 5.71L217.64 5.71Q219.05 5.71 219.96 6.39L219.96 6.39L219.75 8.70L219.43 8.64L219.22 6.87L219.22 6.87Q218.63 6.09 217.31 6.09L217.31 6.09L217.31 6.09Q216.17 6.09 215.34 7.19L215.34 7.19L215.34 7.19Q214.51 8.30 214.51 10.00L214.51 10.00L214.51 10.00Q214.51 11.92 215.31 12.97L215.31 12.97L215.31 12.97Q216.12 14.03 217.59 14.03L217.59 14.03L217.59 14.03Q218.33 14.03 219.02 13.65L219.02 13.65L219.02 13.65Q219.71 13.28 220.18 12.74L220.18 12.74L220.34 12.99L220.34 12.99Q220.17 13.25 219.88 13.51L219.88 13.51L219.88 13.51Q219.59 13.77 219.20 14.02L219.20 14.02L219.20 14.02Q218.82 14.27 218.31 14.42L218.31 14.42L218.31 14.42Q217.81 14.57 217.28 14.57L217.28 14.57L217.28 14.57Q215.71 14.57 214.75 13.40L214.75 13.40L214.75 13.40Q213.79 12.22 213.79 10.25ZM230.30 10.27L230.29 10.17L230.29 10.17Q230.93 9.47 231.29 9.04L231.29 9.04L233.56 6.33L232.37 6.16L232.40 5.89L235.18 5.89L235.16 6.16L234.12 6.32L231 10.10L232.79 12.20L232.79 12.20Q233.58 13.13 234.09 13.54L234.09 13.54L234.09 13.54Q234.59 13.94 235.17 14.03L235.17 14.03L235.54 14.08L235.46 14.38L235.46 14.38Q235.46 14.38 235.33 14.42L235.33 14.42L235.33 14.42Q235.19 14.46 235.14 14.48L235.14 14.48L235.14 14.48Q235.09 14.50 235.02 14.52L235.02 14.52L235.02 14.52Q234.95 14.53 234.88 14.54L234.88 14.54L234.88 14.54Q234.81 14.55 234.73 14.55L234.73 14.55L234.73 14.55Q234.40 14.55 234.11 14.43L234.11 14.43L234.11 14.43Q233.81 14.31 233.50 14.03L233.50 14.03L233.50 14.03Q233.18 13.75 232.97 13.51L232.97 13.51L232.97 13.51Q232.75 13.28 232.37 12.82L232.37 12.82L230.30 10.27ZM229.18 6.33L228.00 6.16L228.03 5.89L231.10 5.89L231.08 6.16L229.92 6.32L229.92 13.95L231.19 14.08L231.12 14.40L228.07 14.40L228.11 14.11L229.18 13.90L229.18 6.33ZM243.36 13.92L243.36 13.92L243.36 13.92Q243.36 13.25 243.79 13.25L243.79 13.25L243.79 13.25Q244.22 13.25 244.22 13.92L244.22 13.92L244.22 13.92Q244.22 14.62 243.79 14.62L243.79 14.62L243.79 14.62Q243.36 14.62 243.36 13.92Z"></path></g></svg>